HIERARCHY
ROOT Hips
{
 OFFSET 0.000000 0.000000 0.000000
 CHANNELS 6 Xposition Yposition Zposition Yrotation Xrotation Zrotation
 JOINT Chest
 {
  OFFSET 0.000000 9.585900 0.002600
  CHANNELS 3 Yrotation Xrotation Zrotation
  JOINT Chest2
  {
   OFFSET 0.000000 9.601200 -0.005300
   CHANNELS 3 Yrotation Xrotation Zrotation
   JOINT Chest3
   {
    OFFSET 0.000000 9.561800 0.000000
    CHANNELS 3 Yrotation Xrotation Zrotation
    JOINT Chest4
    {
     OFFSET 0.000000 9.552100 0.000000
     CHANNELS 3 Yrotation Xrotation Zrotation
     JOINT Neck
     {
      OFFSET 0.000000 14.453000 0.000000
      CHANNELS 3 Yrotation Xrotation Zrotation
      JOINT Head
      {
       OFFSET 0.000000 8.936500 -0.011300
       CHANNELS 3 Yrotation Xrotation Zrotation
       End Site
       {
        OFFSET 0.000000 17.073600 -0.006000
       }
      }
     }
     JOINT RightCollar
     {
      OFFSET -2.921100 9.558500 0.000000
      CHANNELS 3 Yrotation Xrotation Zrotation
      JOINT RightShoulder
      {
       OFFSET -13.519700 0.000000 0.000000
       CHANNELS 3 Yrotation Xrotation Zrotation
       JOINT RightElbow
       {
        OFFSET 0.000000 -29.696600 0.000000
        CHANNELS 3 Yrotation Xrotation Zrotation
        JOINT RightWrist
        {
         OFFSET 0.000000 -24.004700 0.000000
         CHANNELS 3 Yrotation Xrotation Zrotation
         End Site
         {
          OFFSET 0.000000 -17.728500 0.000000
         }
        }
       }
      }
     }
     JOINT LeftCollar
     {
      OFFSET 2.921100 9.558500 0.000000
      CHANNELS 3 Yrotation Xrotation Zrotation
      JOINT LeftShoulder
      {
       OFFSET 13.519700 0.000000 0.000000
       CHANNELS 3 Yrotation Xrotation Zrotation
       JOINT LeftElbow
       {
        OFFSET 0.000000 -29.696600 0.000000
        CHANNELS 3 Yrotation Xrotation Zrotation
        JOINT LeftWrist
        {
         OFFSET 0.000000 -24.004700 0.000000
         CHANNELS 3 Yrotation Xrotation Zrotation
         End Site
         {
          OFFSET 0.000000 -17.728500 0.000000
         }
        }
       }
      }
     }
    }
   }
  }
 }
 JOINT RightHip
 {
  OFFSET -7.771700 -0.012900 -0.001300
  CHANNELS 3 Yrotation Xrotation Zrotation
  JOINT RightKnee
  {
   OFFSET 0.000000 -40.869800 0.001200
   CHANNELS 3 Yrotation Xrotation Zrotation
   JOINT RightAnkle
   {
    OFFSET 0.000000 -39.717900 0.002100
    CHANNELS 3 Yrotation Xrotation Zrotation
    JOINT RightToe
    {
     OFFSET 0.000000 -4.965400 11.033500
     CHANNELS 3 Yrotation Xrotation Zrotation
     End Site
     {
      OFFSET 0.000000 -1.423100 5.872300
     }
    }
   }
  }
 }
 JOINT LeftHip
 {
  OFFSET 7.771700 -0.012900 -0.001300
  CHANNELS 3 Yrotation Xrotation Zrotation
  JOINT LeftKnee
  {
   OFFSET 0.000000 -40.869800 0.001200
   CHANNELS 3 Yrotation Xrotation Zrotation
   JOINT LeftAnkle
   {
    OFFSET 0.000000 -39.717900 0.002100
    CHANNELS 3 Yrotation Xrotation Zrotation
    JOINT LeftToe
    {
     OFFSET 0.000000 -4.965400 11.033500
     CHANNELS 3 Yrotation Xrotation Zrotation
     End Site
     {
      OFFSET 0.000000 -1.423100 5.872300
     }
    }
   }
  }
 }
}
MOTION
Frames: 16
Frame Time: 0.008333
0.000000 85.388000 0.000000 0.000000 -5.767877 0.000000 0.000000 11.653817 0.000000 0.000000 -5.885947 0.000000 0.000000 -0.000000 0.000000 0.000000 -0.000000 0.000000 0.000000 12.528835 0.000000 0.000000 0.711642 0.000000 0.000000 -0.000000 0.000000 0.000000 0.000000 -90.000000 0.000000 -2.309062 0.000000 0.000000 2.309062 0.000000 0.000000 -0.000000 0.000000 0.000000 -0.000000 90.000000 0.000000 -2.309062 0.000000 0.000000 2.309062 0.000000 0.000000 8.520406 0.000000 0.000000 1.905762 0.000000 -0.000000 -4.658285 0.000000 0.000000 -0.000000 0.000000 0.000000 8.520406 0.000000 0.000000 1.905762 0.000000 -0.000000 -4.658285 0.000000 0.000000 -0.000000 0.000000
-52.659274 50.048150 36.291505 171.181303 -35.555366 -3.037043 7.484419 23.430154 7.601873 0.976358 3.735147 0.906924 1.597661 6.124005 1.566535 5.955388 19.498495 5.775716 -2.064996 21.583510 0.103975 -3.786662 4.309304 0.780824 1.399860 -0.357123 -4.985752 22.444771 -24.641127 -13.838289 -141.747585 -64.970127 139.720073 -5.993208 -10.172980 27.145197 -18.639558 4.488808 1.231538 -5.330136 -26.586130 6.253045 131.302329 -58.204937 -147.887418 31.927201 0.122749 -25.362694 4.265150 -46.799594 6.903457 -32.568160 86.728067 -21.367015 -3.122570 -5.776782 -4.566083 0.032134 0.195199 0.012153 -8.465158 -49.390292 15.294308 -126.341729 87.576218 -133.296451 0.089925 -7.711277 3.457444 -0.024215 -0.213729 -0.025356
-52.654525 50.047856 36.287040 171.165248 -35.549058 -3.027804 7.497254 23.448531 7.614074 0.978885 3.770925 0.924590 1.608057 6.148936 1.575437 5.973968 19.523215 5.794515 -2.048833 21.548282 0.067197 -3.728619 4.246532 0.694388 1.372750 -0.395703 -5.005831 22.480585 -24.664474 -13.767227 -141.400288 -64.950695 139.375291 -6.042262 -10.219392 26.738504 -18.717255 4.468449 1.264265 -5.441458 -26.610718 6.246049 130.907310 -58.239411 -147.466724 32.064407 -0.052945 -25.120978 4.279679 -46.807658 6.908762 -32.398747 86.737552 -21.193673 -3.129363 -5.780008 -4.572739 0.026994 0.195385 0.012091 -8.460236 -49.395543 15.296275 -126.533431 87.574218 -133.486477 0.089660 -7.719962 3.451981 -0.027356 -0.212628 -0.023232
-52.647439 50.046413 36.283034 171.110111 -35.531791 -3.006784 7.545399 23.453613 7.636302 0.987341 3.861074 0.968861 1.614426 6.124290 1.559933 5.994225 19.550688 5.817400 -2.027478 21.504718 0.022688 -3.678189 4.163845 0.608976 1.333559 -0.446961 -5.028166 22.505472 -24.692855 -13.695515 -141.006970 -64.906341 139.007774 -6.088247 -10.241230 26.393541 -18.814705 4.441293 1.304522 -5.519976 -26.622896 6.217842 130.476813 -58.249553 -147.030950 32.250954 -0.232405 -25.077629 4.342383 -46.837906 6.933397 -32.589262 86.733000 -21.379529 -3.151358 -5.780854 -4.566060 0.030419 0.199720 0.018011 -8.444915 -49.410054 15.322386 -126.811132 87.567874 -133.763937 0.090322 -7.734607 3.445437 -0.028917 -0.211421 -0.020072
-52.640091 50.046182 36.275467 171.089729 -35.526849 -3.002299 7.576740 23.535699 7.696824 0.993370 3.856481 0.964330 1.611555 6.086960 1.536069 6.030777 19.622064 5.876219 -1.999820 21.453589 -0.031950 -3.613507 4.066717 0.503726 1.282555 -0.504406 -5.054465 22.534406 -24.726163 -13.631083 -140.613020 -64.856170 138.650623 -6.138452 -10.232408 26.102262 -18.922257 4.408766 1.343738 -5.576361 -26.613817 6.178433 130.033978 -58.227250 -146.598758 32.506839 -0.420744 -25.244337 4.393264 -46.853157 6.951006 -32.825901 86.732651 -21.612886 -3.159889 -5.781076 -4.554321 0.010344 0.196375 0.028618 -8.448423 -49.413201 15.338033 -127.127414 87.561580 -134.079993 0.090748 -7.747747 3.446318 -0.029743 -0.212568 -0.025054
-52.632076 50.045761 36.266445 171.074647 -35.521685 -3.003117 7.599853 23.590594 7.748610 0.997288 3.859860 0.964082 1.622195 6.134080 1.560916 6.033494 19.628966 5.889127 -2.011997 21.369662 -0.103688 -3.484929 3.986032 0.372296 1.225028 -0.560334 -5.083136 22.581049 -24.761689 -13.581460 -140.282362 -64.815948 138.349553 -6.186611 -10.199024 25.852256 -19.029219 4.375553 1.376943 -5.619966 -26.580205 6.137156 129.560428 -58.151190 -146.159329 32.807396 -0.594777 -25.614197 4.427420 -46.863797 6.969625 -33.137563 86.732061 -21.913052 -3.165172 -5.787264 -4.552961 0.021072 0.196797 0.033529 -8.457817 -49.417918 15.354809 -127.651146 87.559381 -134.598704 0.081220 -7.761251 3.437843 -0.029735 -0.214811 -0.024131
-52.624263 50.045183 36.255782 171.066274 -35.517713 -3.006247 7.609752 23.629585 7.788139 1.002767 3.847849 0.952155 1.628101 6.204869 1.607286 6.027135 19.634720 5.901518 -1.939233 21.326270 -0.165713 -3.403501 3.858197 0.246189 1.169951 -0.605587 -5.111341 22.647791 -24.796915 -13.550736 -140.060860 -64.794782 138.138952 -6.223442 -10.151380 25.646265 -19.125886 4.347767 1.404979 -5.653200 -26.524733 6.091078 129.028672 -58.008835 -145.695220 33.095539 -0.718437 -26.158636 4.437165 -46.869407 6.994833 -33.010249 86.743539 -21.783611 -3.185718 -5.795622 -4.556929 0.024057 0.198105 0.031515 -8.474438 -49.422085 15.370124 -128.195606 87.555274 -135.139363 0.074526 -7.773798 3.427518 -0.029769 -0.218698 -0.022869
-52.616119 50.044578 36.243616 171.062818 -35.516364 -3.015334 7.605921 23.663858 7.824137 1.015931 3.842518 0.942912 1.625589 6.212383 1.612751 6.022008 19.682722 5.958835 -1.856638 21.279552 -0.229665 -3.300293 3.735344 0.109530 1.120568 -0.632559 -5.135238 22.732085 -24.828984 -13.536323 -139.958635 -64.795416 138.030542 -6.244677 -10.104320 25.491087 -19.204870 4.329639 1.424251 -5.673087 -26.449770 6.036114 128.455913 -57.813811 -145.225305 33.324315 -0.769589 -26.830320 4.479581 -46.877446 7.014185 -33.129455 86.751546 -21.893074 -3.211385 -5.806934 -4.541352 0.025931 0.199992 0.032992 -8.505428 -49.423156 15.395669 -128.626906 87.540905 -135.571793 0.077760 -7.785652 3.417173 -0.030117 -0.224250 -0.021743
-52.608601 50.044165 36.229715 171.063906 -35.519763 -3.025547 7.594927 23.689629 7.848404 1.017506 3.869431 0.960983 1.607294 6.227822 1.630449 6.003955 19.685393 5.968229 -1.787372 21.224429 -0.302041 -3.154701 3.630128 -0.040036 1.077688 -0.635307 -5.153125 22.827910 -24.857636 -13.531687 -139.956743 -64.813907 138.012097 -6.252340 -10.072390 25.398966 -19.261151 4.326304 1.426289 -5.673717 -26.361209 5.975700 127.916240 -57.605041 -144.807654 33.474370 -0.753585 -27.560717 4.565726 -46.888739 7.035530 -33.188686 86.757873 -21.949218 -3.293290 -5.824657 -4.483374 0.029735 0.206274 0.033507 -8.529446 -49.419959 15.413699 -129.038130 87.523721 -135.981550 0.079823 -7.800814 3.408185 -0.029770 -0.227633 -0.019742
-52.599414 50.043709 36.215392 171.057313 -35.523904 -3.045627 7.605265 23.697348 7.878399 0.954794 3.913633 1.013753 1.616750 6.218133 1.616650 5.975590 19.687657 5.975243 -1.708748 21.173249 -0.378965 -2.990703 3.532297 -0.200750 1.052349 -0.611075 -5.169587 22.916858 -24.884888 -13.533355 -140.019782 -64.848481 138.094998 -6.252562 -10.068986 25.352058 -19.285779 4.338609 1.402534 -5.652366 -26.262750 5.915087 127.514047 -57.425248 -144.518173 33.548296 -0.699645 -28.271834 4.595464 -46.890987 7.076652 -33.455290 86.759064 -22.204642 -3.320623 -5.832843 -4.469927 0.027165 0.203075 0.038802 -8.565025 -49.415020 15.448444 -129.149879 87.488069 -136.083834 0.111067 -7.825494 3.388925 -0.028551 -0.225707 -0.017414
-52.592108 50.042255 36.201717 171.067186 -35.516928 -3.070405 7.571760 23.707781 7.907317 0.924544 3.909619 1.018306 1.601189 6.221218 1.623185 5.926832 19.697215 5.990622 -1.621139 21.137803 -0.470566 -2.813374 3.422816 -0.366375 1.058895 -0.567618 -5.190965 22.980500 -24.907441 -13.539382 -140.056293 -64.869059 138.178093 -6.226462 -10.084305 25.383864 -19.270785 4.357196 1.348764 -5.609218 -26.150311 5.859125 127.335814 -57.306966 -144.419077 33.565033 -0.646278 -28.902178 4.615479 -46.905624 7.101243 -33.938728 86.759835 -22.665778 -3.333748 -5.827249 -4.490015 0.028484 0.192975 0.052033 -8.660879 -49.415584 15.521650 -129.511784 87.464928 -136.477912 0.122421 -7.840218 3.378788 -0.030086 -0.229661 -0.016276
-52.586532 50.041289 36.187182 171.079212 -35.512327 -3.091575 7.433041 23.736120 7.913940 0.990215 3.899054 0.992374 1.559766 6.226003 1.636598 5.863590 19.706602 6.001851 -1.523887 21.127045 -0.583842 -2.638640 3.278129 -0.520035 1.094832 -0.521849 -5.219944 23.014199 -24.916709 -13.544805 -140.069299 -64.882763 138.153803 -6.210494 -10.095323 25.595669 -19.224072 4.368881 1.269458 -5.542473 -26.024583 5.812804 127.396132 -57.268580 -144.515241 33.538604 -0.625153 -29.419369 4.625951 -46.914371 7.129953 -34.173924 86.768684 -22.897037 -3.352915 -5.832336 -4.488944 0.018625 0.185089 0.064670 -8.721066 -49.417261 15.567692 -129.781423 87.440974 -136.764926 0.129111 -7.858192 3.370115 -0.027058 -0.231949 -0.010680
-52.582885 50.040801 36.172338 171.091312 -35.507667 -3.107558 7.349338 23.755816 7.915235 1.040845 3.886320 0.975627 1.475891 6.238536 1.666445 5.795013 19.716919 6.011384 -1.450116 21.019966 -0.648074 -2.464658 3.200249 -0.730217 1.140734 -0.486364 -5.252125 23.020193 -24.903966 -13.544380 -140.104696 -64.909809 138.204588 -6.203774 -10.106125 25.821231 -19.126373 4.350451 1.170693 -5.494643 -25.874320 5.783285 127.652654 -57.306544 -144.767710 33.467882 -0.640793 -29.818745 4.617789 -46.921690 7.173207 -34.292382 86.779162 -23.041268 -3.366765 -5.839047 -4.473438 -0.004870 0.179719 0.073941 -8.764601 -49.419862 15.592000 -130.053371 87.417985 -137.043980 0.137459 -7.879368 3.359677 -0.022830 -0.231085 -0.006681
-52.578897 50.040215 36.159127 171.106751 -35.493614 -3.135630 7.305450 23.753851 7.930503 0.926949 3.907996 1.010251 1.517254 6.228518 1.647150 5.726984 19.727249 6.020920 -1.390307 20.930822 -0.725563 -2.314761 3.073404 -0.916657 1.181974 -0.458973 -5.282483 23.007186 -24.864887 -13.538221 -140.148706 -64.948102 138.285603 -6.195771 -10.110951 26.055278 -19.090247 4.343528 1.077053 -5.364586 -25.739277 5.744930 128.058778 -57.402545 -145.131881 33.349188 -0.670362 -30.116062 4.633155 -46.939270 7.194552 -34.743295 86.779606 -23.480341 -3.358442 -5.842890 -4.472426 -0.001740 0.177162 0.078796 -8.810955 -49.434384 15.624588 -130.334306 87.396420 -137.322490 0.144834 -7.900801 3.350807 -0.021180 -0.227712 -0.005182
-52.575874 50.040630 36.146048 171.116667 -35.481373 -3.161653 7.267780 23.753455 7.948417 0.860956 3.916587 1.030950 1.563276 6.221662 1.625450 5.622051 19.734778 6.055178 -1.339611 20.846939 -0.809878 -2.198363 2.916477 -1.083275 1.211216 -0.429669 -5.309222 22.990085 -24.798114 -13.528291 -140.209813 -65.005488 138.375434 -6.185172 -10.113477 26.277374 -19.036678 4.328884 0.980329 -5.257817 -25.590326 5.712760 128.585175 -57.542664 -145.573679 33.184364 -0.688039 -30.334180 4.679556 -46.958826 7.207086 -35.371250 86.772260 -24.085935 -3.361663 -5.845802 -4.462221 0.015281 0.174914 0.083484 -8.861136 -49.444525 15.656737 -130.732259 87.380284 -137.716942 0.151550 -7.923941 3.336990 -0.021265 -0.224149 -0.005370
-52.573258 50.041339 36.134541 171.153244 -35.461582 -3.209072 7.173922 23.756936 7.966899 0.857912 3.904669 1.032900 1.517857 6.222366 1.639055 5.581095 19.737214 6.052032 -1.303884 20.757896 -0.890505 -2.109967 2.750253 -1.239069 1.221221 -0.391876 -5.330984 22.972418 -24.700528 -13.508824 -140.312807 -65.083755 138.493221 -6.168553 -10.113227 26.451004 -18.937049 4.316211 0.880820 -5.220791 -25.425044 5.690577 129.211504 -57.718537 -146.074795 32.981186 -0.676011 -30.491579 4.677504 -46.980502 7.248378 -35.755099 86.765221 -24.468081 -3.388016 -5.850361 -4.440104 0.022637 0.174120 0.081970 -8.931986 -49.464415 15.697767 -131.197332 87.370499 -138.178342 0.150326 -7.942151 3.330954 -0.021476 -0.220778 -0.006293
